<?xml version="1.0" encoding="utf-8"?>
<svg width="32" height="28.176" viewBox="0 0 32 28.176" fill="none" xmlns="http://www.w3.org/2000/svg">
  <g id="Group">
    <path id="Path" d="M6.93639 1.89654C10.6051 4.65079 14.5512 10.2352 16.0001 13.2322C17.449 10.2355 21.3949 4.65073 25.0637 1.89654C27.7109 -0.0908082 31.9999 -1.62851 31.9999 3.26453C31.9999 4.24174 31.4397 11.4736 31.1111 12.6476C29.9688 16.7295 25.8066 17.7706 22.1042 17.1405C28.5759 18.2419 30.2222 21.8903 26.6668 25.5388C19.9143 32.4678 16.9615 23.8002 16.2045 21.5793C16.0658 21.1721 16.0009 20.9817 15.9999 21.1436C15.999 20.9817 15.9341 21.1721 15.7954 21.5793C15.0388 23.8002 12.086 32.468 5.33315 25.5388C1.77764 21.8903 3.42392 18.2417 9.89571 17.1405C6.19322 17.7706 2.03093 16.7294 0.888874 12.6476C0.560162 11.4735 0 4.24163 0 3.26453C0 -1.62851 4.28919 -0.0908085 6.93623 1.89654C6.93623 1.89654 6.93639 1.89654 6.93639 1.89654Z" fill="#FFFFFF" />
  </g>
</svg>